HIERARCHY
ROOT Hips
{
  OFFSET -10.0563 7.73376 -472.55
  CHANNELS 6 Xposition Yposition Zposition Zrotation Xrotation Yrotation
  JOINT Spine
  {
    OFFSET 0 0 0
    CHANNELS 3 Zrotation Xrotation Yrotation
    JOINT Spine1
    {
      OFFSET 19 0 0
      CHANNELS 3 Zrotation Xrotation Yrotation
      JOINT Neck
      {
        OFFSET 22.5 0.6 0
        CHANNELS 3 Zrotation Xrotation Yrotation
        JOINT Head
        {
          OFFSET 14 0.0308777 0
          CHANNELS 3 Zrotation Xrotation Yrotation
          End Site
          {
            OFFSET 17 0 0
          }
        }
      }
      JOINT LeftShoulder
      {
        OFFSET 19.8 3.7 4.3
        CHANNELS 3 Zrotation Xrotation Yrotation
        JOINT LeftArm
        {
          OFFSET 8 0 0
          CHANNELS 3 Zrotation Xrotation Yrotation
          JOINT LeftForeArm
          {
            OFFSET 15.2 0 0
            CHANNELS 3 Zrotation Xrotation Yrotation
            JOINT LeftHand
            {
              OFFSET 17.8 0 0
              CHANNELS 3 Zrotation Xrotation Yrotation
              End Site
              {
                OFFSET 7.2 0 0
              }
            }
          }
        }
      }
      JOINT RightShoulder
      {
        OFFSET 19.8 3.7 -4.3
        CHANNELS 3 Zrotation Xrotation Yrotation
        JOINT RightArm
        {
          OFFSET 8 0 0.151654
          CHANNELS 3 Zrotation Xrotation Yrotation
          JOINT RightForeArm
          {
            OFFSET 15.2 0 0
            CHANNELS 3 Zrotation Xrotation Yrotation
            JOINT RightHand
            {
              OFFSET 17.8 0 0
              CHANNELS 3 Zrotation Xrotation Yrotation
              End Site
              {
                OFFSET 7.2 0 0
              }
            }
          }
        }
      }
    }
  }
  JOINT LeftUpLeg
  {
    OFFSET 5.98425 -7.666 4.78879
    CHANNELS 3 Zrotation Xrotation Yrotation
    JOINT LeftLeg
    {
      OFFSET 16 0 0
      CHANNELS 3 Zrotation Xrotation Yrotation
      JOINT LeftFoot
      {
        OFFSET 18 0 0
        CHANNELS 3 Zrotation Xrotation Yrotation
        End Site
        {
          OFFSET 0 -10.8 0
        }
      }
    }
  }
  JOINT RightUpLeg
  {
    OFFSET 5.98425 -7.66598 -4.78879
    CHANNELS 3 Zrotation Xrotation Yrotation
    JOINT RightLeg
    {
      OFFSET 16 0 0
      CHANNELS 3 Zrotation Xrotation Yrotation
      JOINT RightFoot
      {
        OFFSET 18 0 0
        CHANNELS 3 Zrotation Xrotation Yrotation
        End Site
        {
          OFFSET 0 -10.8 0
        }
      }
    }
  }
  JOINT Tail
  {
    OFFSET 6.83696 -0.722574 0
    CHANNELS 3 Zrotation Xrotation Yrotation
    JOINT Tail1
    {
      OFFSET 12 0 0
      CHANNELS 3 Zrotation Xrotation Yrotation
      End Site
      {
        OFFSET 12 0 0
      }
    }
  }
}
MOTION
Frames:	17
Frame Time:	0.0166667
-3.40797 7.72365 23.159 157.567 -78.2662 -111.262 -126.792 -0.639214 -5.84615 1.61226 1.74718 5.6665 9.58259 -11.8704 13.1374 -69.3582 72.7012 103.929 -110.136 -36.5825 -137.454 71.2107 -60.0431 -163.98 -76.5019 11.9165 -1.98239 5.32044 0.52659 -12.5721 76.0794 -30.0095 47.4155 111.843 -66.4982 7.9908 -82.698 -14.0691 -1.25478 5.11054 -0.105774 -2.41931 -147.816 53.4752 8.29979 165.045 49.6694 -0.709811 -19.5337 0.307438 25.8936 -127.611 -46.7365 -2.32603 161.625 -49.5111 -5.55419 -35.3207 -2.52392 -28.7903 79.4625 18.6596 7.7088 14.8245 -22.3104 6.2731 
-3.39757 7.72843 23.1575 157.711 -78.3134 -111.072 -126.735 -0.639587 -5.74347 1.52424 1.7119 5.52555 9.45976 -11.5521 12.967 -70.5856 72.6187 105.224 -110.135 -36.588 -137.442 70.9531 -60.0929 -164.314 -76.5663 11.9061 -1.97926 5.36462 0.52951 -12.6151 76.059 -30.0006 47.3215 111.874 -66.6929 8.14952 -82.662 -14.1916 -1.23807 4.97745 -0.116305 -2.19876 -147.916 53.5926 8.41612 165.044 49.7858 -0.711515 -19.5753 0.306574 25.9493 -127.411 -46.9488 -2.05363 161.448 -49.897 -5.63857 -35.3817 -2.50753 -28.6672 79.3278 18.6676 7.80546 14.8528 -22.3988 6.28274 
-3.40062 7.75406 23.1627 157.71 -78.351 -111.114 -126.708 -0.686648 -5.80044 1.47572 1.6954 5.53013 9.40937 -11.4118 12.9246 -70.9557 72.6588 105.626 -110.153 -36.5958 -137.476 70.9215 -60.4104 -165.105 -76.7091 11.1061 -1.48247 5.50039 0.556508 -13.2253 75.9659 -30.0522 47.1058 111.932 -66.3802 7.90131 -82.6576 -14.2431 -1.2448 4.75843 -0.12076 -2.09292 -147.998 53.3462 8.29819 165.048 49.6515 -0.711116 -19.434 0.337249 25.9623 -127.389 -46.4087 -1.89325 161.587 -49.1409 -5.51314 -35.2138 -2.55882 -28.4642 79.2228 18.7509 7.86697 14.862 -22.4623 6.29019 
-3.40193 7.77809 23.1693 157.696 -78.4266 -111.162 -126.82 -0.678547 -5.96258 1.53709 1.76871 5.67554 9.43438 -11.6632 12.932 -70.632 72.4431 105.323 -110.184 -36.5946 -137.558 71.2212 -60.7843 -165.649 -76.7867 10.3286 -0.949709 5.57525 0.588286 -13.864 75.9663 -30.082 47.1762 111.96 -66.2105 7.7783 -82.7001 -14.1669 -1.27186 4.73729 -0.12177 -2.11712 -148.018 53.1326 8.12322 165.085 49.3025 -0.709543 -19.2959 0.355527 25.9035 -127.844 -45.709 -2.18333 161.858 -48.2883 -5.34957 -34.9232 -2.63695 -28.4846 79.1268 18.7966 7.89084 14.9312 -22.4677 6.28836 
-3.40019 7.78851 23.177 157.585 -78.5113 -111.263 -127.037 -0.665946 -5.98253 1.72195 1.7861 5.69413 9.38858 -11.6523 12.8765 -70.6599 72.4355 105.417 -110.182 -36.6023 -137.539 71.4553 -60.7504 -165.4 -76.6828 10.4664 -1.0071 5.48546 0.586961 -13.7694 75.9657 -30.0782 47.1652 111.71 -66.2774 7.72884 -82.6329 -14.152 -1.3009 4.70312 -0.115721 -2.0931 -148.105 53.2063 8.18501 165.076 49.3898 -0.713554 -19.364 0.343521 25.9391 -127.95 -45.7767 -2.31259 161.849 -48.5291 -5.37646 -35.0287 -2.606 -28.5568 79.0152 18.8187 7.86887 14.9735 -22.4878 6.3141 
-3.41902 7.78483 23.1853 157.236 -78.4987 -111.62 -127.274 -0.68656 -6.04329 2.02517 1.76969 5.85758 9.44875 -11.6854 12.8818 -70.2597 72.6132 104.859 -110.142 -36.5401 -137.554 71.8156 -60.5679 -164.961 -76.6016 10.4918 -1.09015 5.52625 0.572438 -13.6103 75.9708 -30.0648 47.1527 111.245 -66.2796 7.56048 -82.5434 -14.1854 -1.30216 4.76651 -0.106992 -2.23503 -148.206 53.3117 8.43153 165.062 49.6494 -0.717914 -19.4731 0.346225 26.1218 -127.441 -46.453 -2.01091 161.585 -49.4134 -5.54457 -35.4957 -2.48727 -28.4942 78.987 18.8909 7.77354 14.9336 -22.5351 6.34703 
-3.42428 7.78692 23.1939 156.947 -78.4732 -111.919 -127.457 -0.679308 -6.11795 2.25705 1.7895 6.03001 9.48654 -11.754 12.8454 -69.7598 72.719 104.384 -110.122 -36.4784 -137.618 72.3016 -60.5745 -164.598 -76.5011 10.4123 -1.12272 5.62962 0.566341 -13.6231 75.9784 -30.0765 47.207 110.979 -66.2814 7.51839 -82.4848 -14.222 -1.29764 4.78536 -0.106675 -2.32416 -148.565 53.347 8.83149 165.097 49.7271 -0.717012 -19.396 0.400995 26.3806 -127.049 -46.5408 -1.70059 161.51 -49.4835 -5.57195 -35.7093 -2.44229 -28.3965 79.004 18.9354 7.67783 14.9122 -22.5466 6.36784 
-3.42209 7.778 23.1999 156.868 -78.4133 -112.021 -127.49 -0.651695 -6.14916 2.32412 1.82899 6.07854 9.53496 -11.7947 12.7959 -69.5979 72.7309 104.215 -110.124 -36.4624 -137.654 72.6805 -60.8699 -164.666 -76.4512 10.2237 -0.995041 5.72169 0.574034 -13.8361 75.999 -30.0996 47.3342 111.067 -66.3559 7.68005 -82.488 -14.2173 -1.28021 4.83682 -0.112933 -2.34571 -148.437 53.1726 8.61987 165.095 49.5407 -0.710837 -19.3752 0.383553 26.2859 -127.183 -46.2793 -1.86469 161.694 -49.0046 -5.47753 -35.5856 -2.47774 -28.5104 79.1803 18.878 7.58381 14.8371 -22.4368 6.35195 
-3.4309 7.75522 23.2012 156.786 -78.3426 -112.118 -127.487 -0.628406 -6.12453 2.37865 1.84387 6.06654 9.57256 -11.8232 12.8333 -69.0606 72.9443 103.57 -110.116 -36.4667 -137.625 72.8555 -61.2135 -165.048 -76.5239 9.98668 -0.758224 5.81771 0.572457 -13.9893 75.9934 -30.1296 47.3832 111.187 -66.4237 7.89944 -82.5251 -14.138 -1.32722 4.87638 -0.115964 -2.30859 -148.232 53.1322 8.41051 165.069 49.5304 -0.707178 -19.4468 0.346613 26.1687 -127.254 -46.447 -2.05366 161.736 -49.2191 -5.49599 -35.6564 -2.45234 -28.6503 79.3658 18.8081 7.50009 14.7906 -22.3249 6.33512 
-3.44647 7.74222 23.2007 156.655 -78.3068 -112.239 -127.463 -0.616641 -6.08025 2.38229 1.83488 6.05051 9.58265 -11.8076 12.8336 -68.8707 73.0696 103.294 -110.097 -36.4707 -137.568 72.7453 -61.0197 -164.718 -76.5221 10.286 -0.955308 5.70743 0.558474 -13.6558 75.9829 -30.1301 47.3468 111.251 -66.3899 8.03138 -82.5565 -14.0571 -1.40653 4.82364 -0.117056 -2.23425 -148.494 53.2586 8.72376 165.092 49.6239 -0.706265 -19.3902 0.38307 26.2893 -127.213 -46.651 -2.07155 161.687 -49.479 -5.53979 -35.8223 -2.40743 -28.6659 79.438 18.7793 7.44421 14.7835 -22.2883 6.327 
-3.44681 7.73967 23.1934 156.861 -78.2828 -112.025 -127.25 -0.606001 -6.02628 2.14836 1.83686 5.93393 9.68164 -11.8222 12.9045 -69 73.0603 103.189 -110.128 -36.5222 -137.551 72.4484 -61.1093 -164.972 -76.5757 10.3004 -0.932367 5.67566 0.561973 -13.6579 76.0114 -30.1065 47.3947 111.581 -66.4275 8.26126 -82.616 -14.0734 -1.40759 4.79573 -0.119232 -2.1889 -148.407 53.2483 8.65782 165.088 49.5648 -0.705712 -19.3568 0.37908 26.1801 -127.481 -46.4362 -2.24826 161.777 -49.0882 -5.47468 -35.6159 -2.46176 -28.7117 79.473 18.7401 7.51731 14.7561 -22.28 6.27962 
-3.42955 7.73302 23.1791 157.246 -78.2329 -111.645 -126.93 -0.600649 -5.97125 1.82114 1.83831 5.79619 9.73227 -11.8554 12.8735 -69.5097 72.817 103.646 -110.167 -36.559 -137.583 72.092 -61.3286 -165.577 -76.7095 10.0448 -0.735664 5.76527 0.580643 -13.9741 76.039 -30.0965 47.4708 112.055 -66.4573 8.49794 -82.7078 -14.1671 -1.34464 4.82037 -0.121091 -2.19808 -148.403 53.2099 8.66407 165.102 49.5108 -0.710166 -19.2443 0.40825 26.18 -127.593 -46.3019 -2.33864 161.833 -48.7966 -5.42898 -35.3584 -2.52592 -28.7245 79.5453 18.6967 7.61826 14.7597 -22.2602 6.25176 
-3.42597 7.7189 23.1666 157.367 -78.205 -111.555 -126.686 -0.643711 -5.94672 1.54053 1.79329 5.72311 9.69409 -11.8147 12.7368 -70.2755 72.5041 104.551 -110.156 -36.5261 -137.618 71.5351 -60.9201 -165.408 -76.8233 10.2965 -0.959792 5.67571 0.588098 -13.8544 76.053 -30.0676 47.4548 112.39 -66.3863 8.59363 -82.7977 -14.2149 -1.29327 4.86127 -0.120493 -2.21222 -148.495 53.157 8.7602 165.132 49.5807 -0.727041 -19.216 0.434103 26.2931 -127.407 -46.6902 -2.20747 161.71 -49.1586 -5.50602 -35.3812 -2.5151 -28.6551 79.5404 18.7413 7.67689 14.8136 -22.2884 6.26681 
-3.43102 7.73171 23.1677 157.285 -78.2999 -111.636 -126.696 -0.679416 -5.89925 1.48011 1.74718 5.60463 9.60793 -11.7454 12.8499 -69.9261 72.7124 104.324 -110.165 -36.5543 -137.586 71.1214 -60.6131 -165.294 -76.888 10.5422 -1.1199 5.56199 0.578413 -13.6191 76.0153 -30.0795 47.3467 112.37 -66.4061 8.45917 -82.7792 -14.1902 -1.28396 4.84979 -0.125193 -2.13048 -148.513 53.1506 8.67725 165.12 49.5708 -0.735248 -19.2376 0.426553 26.2671 -127.428 -46.8536 -2.11644 161.624 -49.4371 -5.55547 -35.4377 -2.49603 -28.5976 79.3402 18.816 7.74688 14.8622 -22.3836 6.26651 
-3.42695 7.7661 23.1714 157.36 -78.3964 -111.5 -126.787 -0.645945 -5.81496 1.54725 1.76398 5.42861 9.53271 -11.7875 12.9556 -69.6706 72.7024 104.269 -110.195 -36.6112 -137.558 71.0671 -60.497 -165.259 -76.8521 10.6641 -1.13196 5.42677 0.574739 -13.5015 75.9857 -30.089 47.2622 112.209 -66.5792 8.39665 -82.7053 -14.1505 -1.29777 4.81692 -0.137438 -1.96107 -148.397 53.1353 8.40471 165.08 49.2963 -0.723177 -19.1126 0.420411 26.0279 -127.808 -46.1553 -2.26205 161.786 -48.8036 -5.42735 -35.149 -2.57114 -28.572 79.1702 18.8088 7.80592 14.8891 -22.4561 6.27452 
-3.42427 7.7787 23.1722 157.491 -78.4097 -111.342 -126.848 -0.624425 -5.80911 1.6326 1.79423 5.36876 9.59549 -11.8711 12.9 -70.5277 72.2639 104.978 -110.216 -36.635 -137.566 71.1666 -60.4068 -165.105 -76.7873 10.7585 -1.16343 5.31376 0.584788 -13.4874 76.0136 -30.0487 47.2694 112.051 -66.6936 8.39275 -82.6658 -14.1395 -1.29968 4.81835 -0.142954 -1.86706 -148.239 53.1376 8.24018 165.041 49.1646 -0.716286 -19.0745 0.407902 25.8916 -127.943 -46.0172 -2.4854 161.803 -48.8551 -5.42147 -35.0841 -2.58296 -28.6151 79.158 18.7811 7.81329 14.9043 -22.4566 6.27794 
-3.42012 7.76412 23.178 157.213 -78.4066 -111.649 -127.018 -0.664114 -5.89328 1.81517 1.77051 5.52833 9.57448 -11.8097 12.7952 -70.6615 72.3 105.109 -110.191 -36.6041 -137.56 71.4392 -60.4918 -164.988 -76.7692 10.5935 -1.13157 5.439 0.589003 -13.635 76.0276 -30.0446 47.3101 111.749 -66.5416 8.0852 -82.6347 -14.1564 -1.27919 4.87484 -0.131554 -2.05621 -148.503 53.2121 8.66713 165.083 49.4489 -0.719178 -19.2499 0.406602 26.1746 -127.607 -46.5504 -2.30818 161.662 -49.3141 -5.52235 -35.3919 -2.50814 -28.6063 79.1704 18.819 7.74305 14.902 -22.4433 6.28713 
